<svg xmlns:svg="http://www.w3.org/2000/svg" xmlns="http://www.w3.org/2000/svg" width="210" height="297" viewBox="0 0 744.09 1052.36" id="svg6302" version="1.1"><style>.s0{color-interpolation-filters:sRGB;}.s1{-inkscape-font-specification:'Fenton Heavy';fill:#999;font-family:Fenton;font-size:38.75;font-weight:900;}.s2{fill:#4d4d4d;}</style><defs id="defs6304"><filter id="filter3891" color-interpolation-filters="sRGB"><feFlood flood-opacity="0.5" flood-color="rgb(0,0,0)" result="flood" id="feFlood3893"/><feComposite in="flood" in2="SourceGraphic" operator="in" result="composite1" id="feComposite3895"/><feGaussianBlur in="composite1" stdDeviation="3" result="blur" id="feGaussianBlur3897"/><feOffset dx="1.1" dy="6" result="offset" id="feOffset3899"/><feComposite in="SourceGraphic" in2="offset" operator="over" result="composite2" id="feComposite3901"/></filter><filter id="filter3615" color-interpolation-filters="sRGB"><feFlood flood-opacity="0.5" flood-color="rgb(0,0,0)" result="flood" id="feFlood3617"/><feComposite in="flood" in2="SourceGraphic" operator="in" result="composite1" id="feComposite3619"/><feGaussianBlur in="composite1" stdDeviation="3" result="blur" id="feGaussianBlur3621"/><feOffset dx="-2.76" dy="6" result="offset" id="feOffset3623"/><feComposite in="SourceGraphic" in2="offset" operator="over" result="composite2" id="feComposite3625"/></filter></defs><g id="layer1"><path d="m185.34 213.74c-1.99-5.73-2.89-11.69-2.83-17.77 0.55-53.11 74.53-115.56 136.16-115.56 34.19 0 47.86 20.14 48.2 36.78 0.27 13.45-8.17 24.6-21.53 20.99 15.35-15.35 5.32-39.29-23.23-33.74-29.09 5.66-34.14 76.56 24.04 76.56 30.3 0 40.81-43.23 69.09-43.23 28.28 0 25.45 25.86 18.59 28.69 1.41-5.45-1.62-14.54-10.91-14.54-9.29 0-19.39 13.74-15.35 25.05 4.04 11.31 16.57 32.73 62.63 14.55 13.39-5.29 24.43-7.33 33.54-7.16 22.24 0.42 33.05 13.99 38.78 25.74-26.26-12.93-42.22-11.92-63.43 9.29-10.55 10.55-34.07 23-64.64 22.95-20.35-0.03-43.82-5.59-68.69-20.93-54.17-33.42-119.19-36.77-160.4-7.68z" id="wave-bottom" style="fill:#7cbfdb;filter:url(#filter3891)"/><path d="m436.67 248.96c-11.69 4.33-23.18 6.16-34.3 6.18-50.56 0.07-93.41-37.3-111.96-46.58-22.62-11.31-47.69-21.83-89.7-3.24-0.25-1.42-0.37-2.97-0.36-4.63 0.14-27.41 34.8-85.45 75.03-85.05 8.1 0.08 16.42 2.53 24.73 8.07 17.17 11.82-23.09 27.21-16.75 2.09-18.43 7.84-30.38 32.75-15.58 54.48 18.99 27.88 54.54 10.91 72.32-4.44 10.11-8.73 22.3-17.19 34.58-16.86 9.32 0.25 18.69 5.57 27.24 19.69 8.78 13.48-24.55 18.82-17.07-5.22-9.13-0.13-15.33 5.41-19.3 14.92-6.67 16.02 8.36 30.32 21.01 33.94 22.63 6.46 91-0.37 74.75-51.31 8.2 2.6 17.71 16.02 17.55 31.73-0.16 16.02-10.36 34.44-42.2 46.24zm123.67-34.85-0.01 0 0 0.01 0.01 0 0-0.01z" id="wave-top" style="fill:#00a1d6;filter:url(#filter3615)"/><g id="title" transform="translate(-520.41761,60.221887)"><path id="title-i" d="m704.57 172.35 0 20.62 4.26 0 0-20.61-4.26 0zm0-8.91 0 4.65 4.26 0 0-4.65-4.26 0zM717.38 192.97l0-15.77M717.38 192.97l0-15.77" class="s1"/><path id="title-n" d="m717.38 192.97 0-15.77c0-0.43 0.31-0.74 0.7-0.77 2.4-0.23 4.34-0.23 6.74 0 0.39 0.04 0.7 0.35 0.7 0.78l0 15.77 4.26 0 0-17.71c0-1.51-1.16-2.71-2.67-2.87-4.22-0.5-7.09-0.5-11.31 0-1.51 0.16-2.67 1.36-2.67 2.87l0 17.71 4.26 0z" class="s1"/><path id="title--" d="m746.86 179.41-11.62 0 0 4.26 11.63 0 0-4.26z" class="s1"/><path id="title-w" d="m771.43 191.73c1.24 2.25 4.46 2.21 5.35-0.27l5.12-14.18c0.19-0.5 0.27-1.01 0.27-1.55l0-3.37-4.22 0 0 3.14c0 0.16-0.04 0.35-0.12 0.54l-3.91 10.81c-0.08 0.19-0.23 0.12-0.27 0.04l-4.46-8.14 0-3.29-4.26 0 0 3.29-4.46 8.14c-0.04 0.08-0.19 0.16-0.27-0.04l-3.91-10.81c-0.08-0.19-0.12-0.39-0.12-0.54l0-3.14-4.22 0 0 3.37c0 0.54 0.08 1.05 0.27 1.55l5.12 14.18c0.89 2.48 4.11 2.52 5.35 0.27l4.38-8.02 4.38 8.02zM786.48 176.58 786.48 176.58" fill="#4d4d4d"/><path id="title-a" d="m786.48 176.58c3.6-0.39 6.94-0.46 10.5-0.19 0.39 0.04 0.7 0.39 0.7 0.78l0 3.02c-3.33-0.27-6.35-0.15-9.69 0.23-1.36 0.16-2.44 1.2-2.67 2.56-0.5 3.1-0.5 4.34 0 7.44 0.23 1.4 1.24 2.4 2.64 2.56 4.03 0.5 7.29 0.5 11.35 0 1.47-0.19 2.64-1.36 2.64-2.87l0-14.84c0-1.55-1.16-2.75-2.67-2.91-4.53-0.5-8.72-0.5-13.25 0l0.47 4.22zm11.2 11.59c0 0.43-0.31 0.74-0.7 0.78-2.44 0.23-4.57 0.23-7.01-0.04-0.39-0.04-0.62-0.31-0.7-0.66-0.15-1.16-0.15-1.94 0-3.1 0.04-0.35 0.35-0.62 0.7-0.66 2.64-0.23 5.04-0.27 7.71-0.04l0 3.72z" fill="#4d4d4d"/><path id="title-v" d="m805.44 172.35 0 3.49c0 0.5 0.12 1.01 0.31 1.47l6.32 14.26c1.05 2.4 4.3 2.4 5.35 0l6.32-14.26c0.19-0.46 0.31-0.97 0.31-1.47l0-3.49-4.26 0 0 3.02c0 0.23-0.08 0.43-0.15 0.62l-4.73 10.81c-0.08 0.16-0.23 0.16-0.31 0l-4.77-10.81c-0.08-0.23-0.12-0.43-0.12-0.62l0-3.02-4.26 0z" fill="#4d4d4d"/><path id="title-e" d="m842.98 188.75c-3.64 0.39-7.01 0.47-10.62 0.16-0.39-0.04-0.66-0.31-0.7-0.7-0.08-0.74-0.12-2.4-0.15-3.02 3.41 0.27 6.55 0.16 9.96-0.23 1.4-0.15 2.48-1.2 2.67-2.56 0.54-3.22 0.54-4.22 0-7.44-0.19-1.39-1.2-2.4-2.6-2.56-4.07-0.5-7.32-0.5-11.35 0-1.43 0.16-2.52 1.28-2.67 2.71-0.43 5.39-0.43 9.73 0 15.15 0.16 1.43 1.24 2.56 2.67 2.71 4.53 0.5 8.76 0.5 13.25 0l-0.46-4.22zm-11.31-11.59c0.04-0.39 0.31-0.7 0.7-0.74 2.48-0.23 4.61-0.23 7.13 0 0.35 0.04 0.66 0.35 0.7 0.7 0.16 1.43 0.16 1.63 0 3.06-0.04 0.39-0.35 0.66-0.7 0.7-2.79 0.27-5.27 0.27-8.1 0 0.04-1.39 0.12-1.9 0.27-3.72z" fill="#4d4d4d"/></g></g><metadata id="metadata6380"/></svg>