<svg xmlns="http://www.w3.org/2000/svg" id="in-wave-logo" width="266" height="121" viewBox="0 0 744.09 1052.36">
  <defs id="defs3399">
    <filter id="filter3891" color-interpolation-filters="sRGB">
      <feFlood id="feFlood3893" flood-opacity=".5" flood-color="#000" result="flood"/>
      <feComposite id="feComposite3895" in="flood" in2="SourceGraphic" operator="in" result="composite1"/>
      <feGaussianBlur id="feGaussianBlur3897" in="composite1" stdDeviation="3" result="blur"/>
      <feOffset id="feOffset3899" dx="1.1" dy="6" result="offset"/>
      <feComposite id="feComposite3901" in="SourceGraphic" in2="offset" result="composite2"/>
    </filter>
    <filter id="filter3615" color-interpolation-filters="sRGB">
      <feFlood id="feFlood3617" flood-opacity=".5" flood-color="#000" result="flood"/>
      <feComposite id="feComposite3619" in="flood" in2="SourceGraphic" operator="in" result="composite1"/>
      <feGaussianBlur id="feGaussianBlur3621" in="composite1" stdDeviation="3" result="blur"/>
      <feOffset id="feOffset3623" dx="-2.76" dy="6" result="offset"/>
      <feComposite id="feComposite3625" in="SourceGraphic" in2="offset" result="composite2"/>
    </filter>
  </defs>
  <g id="layer1">
    <g id="waves">
      <path id="wave-bottom" fill="#7cbfdb" d="M185.34 213.74c-2-5.73-2.9-11.7-2.83-17.77.56-53.1 74.54-115.56 136.17-115.56 34.2 0 47.86 20.15 48.2 36.8.27 13.44-8.17 24.6-21.53 20.98 15.35-15.35 5.32-39.3-23.23-33.74-29.08 5.66-34.13 76.56 24.05 76.56 30.3 0 40.8-43.23 69.1-43.23 28.27 0 25.44 25.86 18.58 28.7 1.4-5.46-1.62-14.55-10.9-14.55-9.3 0-19.4 13.74-15.36 25.05 4.04 11.3 16.57 32.73 62.63 14.55 13.4-5.3 24.43-7.33 33.54-7.16 22.24.42 33.05 14 38.78 25.74-26.26-12.93-42.22-11.92-63.43 9.3-10.56 10.54-34.08 23-64.65 22.94-20.35-.03-43.82-5.6-68.7-20.93-54.16-33.4-119.18-36.76-160.4-7.67z" filter="url(#filter3891)" transform="translate(-1401.9 -351.438) scale(4.98182)"/>
      <path id="wave-top" fill="#00a1d6" d="M436.67 248.96c-11.7 4.33-23.18 6.16-34.3 6.18-50.56.07-93.4-37.3-111.96-46.58-22.6-11.3-47.68-21.83-89.7-3.24-.24-1.42-.36-2.97-.35-4.63.14-27.42 34.8-85.46 75.03-85.06 8.1.08 16.42 2.53 24.73 8.07 17.18 11.83-23.08 27.22-16.74 2.1-18.43 7.84-30.38 32.75-15.58 54.48 19 27.88 54.54 10.9 72.32-4.44 10.1-8.73 22.3-17.2 34.58-16.86 9.32.25 18.7 5.57 27.24 19.7 8.78 13.47-24.55 18.8-17.07-5.23-9.13-.13-15.33 5.4-19.3 14.92-6.67 16.02 8.36 30.32 21 33.94 22.64 6.47 91-.36 74.76-51.3 8.2 2.6 17.72 16.02 17.56 31.73-.16 16.02-10.36 34.44-42.2 46.24zm123.67-34.85v.02z" filter="url(#filter3615)" transform="translate(-1401.9 -351.438) scale(4.98182)"/>
    </g>
  </g>
</svg>
