<svg xmlns="http://www.w3.org/2000/svg" id="in-wave-logo" width="555" height="555" viewBox="0 0 1552.53 4826.95">
  <defs>
    <filter id="filterBottomWave" color-interpolation-filters="sRGB">
      <feFlood id="feFlood3893" flood-opacity=".5" flood-color="#000" result="flood"/>
      <feComposite id="feComposite3895" in="flood" in2="SourceGraphic" operator="in" result="composite1"/>
      <feGaussianBlur id="feGaussianBlur3897" in="composite1" stdDeviation="3" result="blur"/>
      <feOffset id="feOffset3899" dx="1.1" dy="6" result="offset"/>
      <feComposite id="feComposite3901" in="SourceGraphic" in2="offset" result="composite2"/>
    </filter>
    <filter id="filterTopWave" color-interpolation-filters="sRGB">
      <feFlood id="feFlood3617" flood-opacity=".5" flood-color="#000" result="flood"/>
      <feComposite id="feComposite3619" in="flood" in2="SourceGraphic" operator="in" result="composite1"/>
      <feGaussianBlur id="feGaussianBlur3621" in="composite1" stdDeviation="3" result="blur"/>
      <feOffset id="feOffset3623" dx="-2.76" dy="6" result="offset"/>
      <feComposite id="feComposite3625" in="SourceGraphic" in2="offset" result="composite2"/>
    </filter>
  </defs>
  <g id="logoWaves" transform="translate(0 3774.588)">
    <g id="waves">
      <path id="bottomWave" fill="#7cbfdb"  filter="url(#filterBottomWave)"  transform="matrix(10.41793 0 0 13.36715 -2799.63 -4177.554)" d="M185.34 213.74c-2-5.73-2.9-11.7-2.83-17.77.56-53.1 74.54-115.56 136.17-115.56 34.2 0 47.86 20.15 48.2 36.8.27 13.44-8.17 24.6-21.53 20.98 15.35-15.35 5.32-39.3-23.23-33.74-29.08 5.66-34.13 76.56 24.05 76.56 30.3 0 40.8-43.23 69.1-43.23 28.27 0 25.44 25.86 18.58 28.7 1.4-5.46-1.62-14.55-10.9-14.55-9.3 0-19.4 13.74-15.36 25.05 4.04 11.3 16.57 32.73 62.63 14.55 13.4-5.3 24.43-7.33 33.54-7.16 22.24.42 33.05 14 38.78 25.74-26.26-12.93-42.22-11.92-63.43 9.3-10.56 10.54-34.08 23-64.65 22.94-20.35-.03-43.82-5.6-68.7-20.93-54.16-33.4-119.18-36.76-160.4-7.67z"/>
      <path id="topWave" fill="#00a1d6"  filter="url(#filterTopWave)" transform="matrix(10.41793 0 0 13.36715 -2824.48 -4176.047)" d="M436.67 248.96c-11.7 4.33-23.18 6.16-34.3 6.18-50.56.07-93.4-37.3-111.96-46.58-22.6-11.3-47.68-21.83-89.7-3.24-.24-1.42-.36-2.97-.35-4.63.14-27.42 34.8-85.46 75.03-85.06 8.1.08 16.42 2.53 24.73 8.07 17.18 11.83-23.08 27.22-16.74 2.1-18.43 7.84-30.38 32.75-15.58 54.48 19 27.88 54.54 10.9 72.32-4.44 10.1-8.73 22.3-17.2 34.58-16.86 9.32.25 18.7 5.57 27.24 19.7 8.78 13.47-24.55 18.8-17.07-5.23-9.13-.13-15.33 5.4-19.3 14.92-6.67 16.02 8.36 30.32 21 33.94 22.64 6.47 91-.36 74.76-51.3 8.2 2.6 17.72 16.02 17.56 31.73-.16 16.02-10.36 34.44-42.2 46.24zm123.67-34.85v.02z"/>
    </g>
    <g id="titleProject" fill="#0a8" filter="url(#filterTopWave)" transform="translate(1326.943 404.37)">
      <path id="dot" d="M-389.58-136q4.08 3.8 4.08 9.52 0 5.7-4.08 9.8-3.8 3.8-9.5 3.8-5.72 0-9.8-3.8-3.8-4.1-3.8-9.8 0-5.7 3.8-9.5 4.08-4.1 9.8-4.1 5.7 0 9.5 4.1z" />
      <path id="p" d="M-307.83-8.25q-3.8 4.08-9.52 4.08-5.7 0-9.78-4.08-3.8-3.8-3.8-9.5V-371.1q0-5.7 3.8-9.5 4.08-4.08 9.78-4.08h81.54q28.26 0 48.1 19.84t19.84 48.1v135.9q0 28.27-19.84 48.1-19.84 19.85-48.1 19.85h-67.96v95.14q0 5.7-4.07 9.5zm4.07-131.82h67.95q16.84 0 28.8-11.96t11.96-28.8v-135.9q0-16.85-11.96-28.8-11.96-11.97-28.8-11.97h-67.96v217.43z" />
      <path id="r" d="M-102.46-384.68h67.94q22.3 0 38.33 16.04 16.04 16.03 16.04 38.32 0 5.7-4.08 9.78-3.8 3.8-9.5 3.8-5.72 0-9.8-3.8-3.8-4.07-3.8-9.78 0-11.14-8.15-19.02-7.87-8.16-19.02-8.16h-54.35v231.02q0 5.7-4.08 9.8-3.8 3.8-9.5 3.8-5.72 0-9.8-3.8-3.8-4.1-3.8-9.8v-244.6q0-5.72 3.8-9.52 4.08-4.08 9.8-4.08z" />
      <path id="o" d="M81.5-366.2q23.9-23.9 57.6-23.9t57.63 23.9q23.92 23.92 23.92 57.62v119.6q0 33.7-23.92 57.6-23.92 23.93-57.62 23.93-33.7 0-57.6-23.92Q57.56-155.3 57.56-189v-119.58q0-33.7 23.92-57.62zm95.93 19.3q-16.03-16.03-38.32-16.03-22.28 0-38.3 16.03-16.05 16.04-16.05 38.32v119.6q0 22.28 16.04 38.3 16.02 16.05 38.3 16.05 22.3 0 38.33-16.04 16.04-16.03 16.04-38.32v-119.58q0-22.28-16.04-38.32z" />
      <path id="j" d="M276.64-380.6q4.08-4.08 9.8-4.08 5.7 0 9.5 4.08 4.08 3.8 4.08 9.5V-72.1q0 28.26-19.84 48.1-19.84 19.85-48.1 19.85-5.72 0-9.52-4.08-4.08-3.8-4.08-9.5 0-5.72 4.08-9.8 3.8-3.8 9.5-3.8 16.86 0 28.82-11.96 11.96-11.97 11.96-28.82V-371.1q0-5.7 3.8-9.5zm19.3-108.72q4.08 3.8 4.08 9.52 0 5.7-4.08 9.78-3.8 3.8-9.5 3.8-5.72 0-9.8-3.8-3.8-4.08-3.8-9.78 0-5.7 3.8-9.52 4.08-4.07 9.8-4.07 5.7 0 9.5 4.08z" />
      <path id="ee" d="M375.8-366.2q23.9-23.9 57.6-23.9t57.62 23.9q23.92 23.92 23.92 57.62v59.8q0 5.7-4.08 9.78-3.8 3.8-9.5 3.8h-122.3v54.36q0 16.85 11.95 28.8 11.96 11.97 28.82 11.97h81.53q5.7 0 9.5 4.08 4.1 3.8 4.1 9.52 0 5.7-4.1 9.8-3.8 3.8-9.5 3.8h-81.53q-28.27 0-48.1-19.85-19.85-19.84-19.85-48.1V-308.6q0-33.7 23.92-57.62zm95.93 19.3q-16.04-16.03-38.33-16.03-22.28 0-38.32 16.03-16.03 16.04-16.03 38.32v46.2h108.7v-46.2q0-22.28-16.02-38.32z" />
      <path id="c" d="M632.36-384.68h54.36q5.7 0 9.5 4.08 4.1 3.8 4.1 9.5 0 5.72-4.1 9.8-3.8 3.8-9.5 3.8h-54.36q-16.85 0-28.8 11.96-11.97 11.96-11.97 28.8v135.9q0 16.85 11.95 28.8 11.96 11.97 28.8 11.97h54.37q5.7 0 9.5 4.08 4.1 3.8 4.1 9.52 0 5.7-4.1 9.8-3.8 3.8-9.5 3.8h-54.36q-28.26 0-48.1-19.85-19.84-19.84-19.84-48.1v-135.9q0-28.27 19.84-48.1 19.84-19.85 48.1-19.85z" />
      <path id="t" d="M766.7-489.32q4.1-4.07 9.8-4.07 5.7 0 9.5 4.08 4.08 3.8 4.08 9.52v95.12h40.77q5.7 0 9.5 4.08 4.1 3.8 4.1 9.5 0 5.72-4.1 9.8-3.8 3.8-9.5 3.8h-40.77v231.02q0 5.7-4.07 9.8-3.8 3.8-9.5 3.8t-9.8-3.8q-3.8-4.1-3.8-9.8V-357.5h-13.58q-5.7 0-9.8-3.8-3.8-4.08-3.8-9.8 0-5.7 3.8-9.5 4.1-4.08 9.8-4.08h13.6v-95.12q0-5.7 3.8-9.52z" />
    </g>
    <g id="titleInWave" fill="#068" filter="url(#filterTopWave)" transform="matrix(1.35365 0 0 1.35365 2165.15 4420.21)"> 
      <path id="i" d="M-2044.32-3623.4q6.9-6.92 16.57-6.92t16.12 6.9q6.9 6.46 6.9 16.13v276.27q0 9.67-6.9 16.58-6.45 6.44-16.12 6.44-9.67 0-16.57-6.45-6.45-6.9-6.45-16.58v-276.26q0-9.66 6.45-16.1zm0-105.45q-6.45-6.9-6.45-16.58 0-9.67 6.45-16.1 6.9-6.92 16.57-6.92t16.12 6.9q6.9 6.45 6.9 16.12 0 9.67-6.9 16.58-6.45 6.45-16.12 6.45-9.67 0-16.57-6.45z" />
      <path id="n" d="M-1729-3538.23q0-18.88-13.35-32.23-13.36-13.8-32.7-13.8h-92.08v253.23q0 9.67-6.9 16.58-6.46 6.44-16.13 6.44-9.66 0-16.57-6.45-6.45-6.9-6.45-16.58v-276.26q0-9.66 6.45-16.1 6.9-6.92 16.57-6.92h115.1q37.77 0 64.94 27.17 27.16 27.17 27.16 64.92v207.2q0 9.67-6.9 16.58-6.45 6.44-16.12 6.44-9.67 0-16.58-6.45-6.44-6.9-6.44-16.58v-207.2z" />
      <path id="~" d="M-1583.23-3486.2q30.4-29 73.2-29 42.83 0 73.68 29.46 17.03 16.58 41.44 16.58 24.4 0 41.43-16.58 6.44-6.44 16.1-6.44 9.68 0 16.13 6.9 6.9 6.45 6.9 16.12 0 9.67-7.36 17.03-30.4 29-73.2 29-42.83 0-73.68-29.46-17.04-16.56-41.44-16.56-23.95 0-41.44 16.1-7.83 6.92-16.12 6.92-9.67 0-16.57-6.45-6.45-6.9-6.45-16.56 0-9.67 7.37-17.04z" />
      <path id="w" d="M-1010.35-3308q-16.12 0-21.65-14.74l-47.42-127.54-47.43 127.54q-5.52 14.73-21.64 14.73-7.8 0-14.26-4.6-6.45-5.08-8.3-12.9l-69.05-276.27q-.47-1.84-.47-5.98 0-9.2 6.44-15.66 6.45-6.92 16.58-6.92 7.82 0 13.8 5.07 6.46 4.6 8.3 12.43l51.1 204.9 43.3-115.1q6.43-15.2 21.63-15.2t21.64 15.2l43.28 115.1 51.1-204.9q1.85-7.83 7.84-12.43 6.44-5.07 14.27-5.07 10.14 0 16.6 6.9 6.43 6.46 6.43 15.67 0 4.14-.46 5.98l-69.06 276.27q-1.83 7.82-8.28 12.9-6.45 4.6-14.27 4.6z" />
      <path id="a" d="M-757.06-3630.32h115.1q9.68 0 16.13 6.9 6.9 6.46 6.9 16.13v230.23q0 9.67 6.45 16.57 6.9 6.45 16.58 6.45 9.66 0 16.1 6.9 6.92 6.45 6.92 16.12 0 9.67-6.9 16.58-6.46 6.44-16.12 6.44-33.62 0-54.34-26.7-34.53 35.9-83.8 35.9-47.88 0-81.5-33.6-33.6-33.62-33.6-81.5v-124.33q0-37.75 27.16-64.92 27.17-27.17 64.92-27.17zm0 46.05q-18.88 0-32.7 13.8-13.34 13.36-13.34 32.24v124.32q0 28.54 20.26 48.8 20.26 20.26 48.8 20.26 28.55 0 48.8-20.26 20.27-20.26 20.27-48.8v-170.37h-92.1z" />
      <path id="v" d="M-531.2-3607.3q0-9.2 6.44-16.1 6.9-6.92 17.03-6.92 16.12 0 21.64 16.12l70 210.88 70-210.88q5.5-16.12 21.63-16.12 10.13 0 16.57 6.9 6.9 6.92 6.9 16.13 0 3.7-1.37 7.37l-91.17 273.5q-6.44 18.42-22.56 18.42-16.1 0-22.56-18.43l-91.17-273.5q-1.38-3.68-1.38-7.36z" />
      <path id="e" d="M-197.9-3605.9q33.62-33.62 81.5-33.62 47.9 0 81.5 33.6 33.6 33.62 33.6 81.5v55.26q0 9.67-6.9 16.57-6.44 6.46-16.1 6.46h-161.16v46.04q0 18.88 13.35 32.7 13.8 13.35 32.68 13.35h115.1q9.68 0 16.12 6.9 6.9 6.45 6.9 16.12 0 9.67-6.9 16.58-6.44 6.44-16.1 6.44h-115.12q-37.76 0-64.92-27.17-27.17-27.17-27.17-64.93v-124.3q0-47.9 33.6-81.5zm130.3 32.68q-20.25-20.26-48.8-20.26-28.55 0-48.8 20.26-20.26 20.26-20.26 48.8v32.24h138.13v-32.23q0-28.56-20.26-48.82z" />
    </g>
    <circle id="border" style="display: none;" cx="780.65" cy="-1356.72" r="2396.58" fill="none" stroke="#08a" stroke-width="32"/>
  </g>
</svg>